# xmcd CD database file
#
# Track frame offsets:
#	150
#	2905
#	21167
#	43238
#	61660
#	78782
#	95986
#	112513
#	135421
#	153338
#	170690
#
# Disc length: 2568 seconds
#
# Revision: 0
# Processed by: cddbd v1.4PL0 Copyright (c) Steve Scherf et al.
# Submitted via: CDex 1.50beta10
#
DISCID=7e0a060b
DTITLE=Jutta Hipp - At The Hickory House Vol. 1
DYEAR=1956
DGENRE=Jazz
TTITLE0=Introduction By Leonard Feather
TTITLE1=Take Me In Your Arms
TTITLE2=Dear Old Stockholm
TTITLE3=Billie's Bounce
TTITLE4=I'll Remember April
TTITLE5=Lady Bird
TTITLE6=Mad About The Boy
TTITLE7=Ain't Misbehavin
TTITLE8=These Foolish Things
TTITLE9=Jeepers Creepers
TTITLE10=The Moon Was Yellow
EXTD=YEAR: 1956
EXTT0=
EXTT1=
EXTT2=
EXTT3=
EXTT4=
EXTT5=
EXTT6=
EXTT7=
EXTT8=
EXTT9=
EXTT10=
PLAYORDER=
